# xmcd
#
# Track frame offsets: 
#        150
#        13828
#        24372
#        36831
#        47800
#        60259
#        73986
#        86445
#        100458
#        112040
#        124653
#        135190
#        148750
#        160764
#        170068
#        182416
#        193092
#        203218
#        215838
#        227204
#        240186
#        262314
#        271179
#        283255
#        292287
#        303966
#        314384
#        326370
#        336788
#
# Disc length: 4593 seconds
#
# Revision: 0
# Processed by: cddbd v1.5.2PL0 Copyright (c) Steve Scherf et al.
# Submitted via: ExactAudioCopy v1.3
#
DISCID=b911ef1d
DTITLE=Buddy Guy, Otis Rush, Ike Turner and More - Cobra Snakebite II [d
DTITLE=isk 2]
DYEAR=2009
DGENRE=Buddy Guy, Otis Rush, Ike Turner and More
TTITLE0=Highway
TTITLE1=Have A Good Time
TTITLE2=Just Whaling
TTITLE3=Killer Diller
TTITLE4=Screaming And Crying
TTITLE5=Row Your Boat
TTITLE6=21 Days In Jail (Take 2)
TTITLE7=Steady Rollin' Man
TTITLE8=Can This Be Mine!
TTITLE9=When I Find My Baby
TTITLE10=I Don't Care Who Knows
TTITLE11=I Hope You Come Back Home
TTITLE12=Fishin' In My Pond
TTITLE13=I Wonder What's The Matter
TTITLE14=Bluesy
TTITLE15=It's You Baby
TTITLE16=You Don't Treat Me Right
TTITLE17=Everything Gonna Be Alright
TTITLE18=Changing Love
TTITLE19=Maybe Blues
TTITLE20=Take Your Hand Out Of My Pocket
TTITLE21=Box Top
TTITLE22=Meet Me Halfway
TTITLE23=Ain't Gonna Cry
TTITLE24=Little Girl
TTITLE25=Need My Baby
TTITLE26=Hidden Charms
TTITLE27=Best Gal I Ever Had
TTITLE28=Eli Tocano Blues
EXTD=
EXTT0=
EXTT1=
EXTT2=
EXTT3=
EXTT4=
EXTT5=
EXTT6=
EXTT7=
EXTT8=
EXTT9=
EXTT10=
EXTT11=
EXTT12=
EXTT13=
EXTT14=
EXTT15=
EXTT16=
EXTT17=
EXTT18=
EXTT19=
EXTT20=
EXTT21=
EXTT22=
EXTT23=
EXTT24=
EXTT25=
EXTT26=
EXTT27=
EXTT28=
PLAYORDER=
